<svg xmlns="http://www.w3.org/2000/svg" version="1.1" xmlns:xlink="http://www.w3.org/1999/xlink" width="512" height="512" x="0" y="0" viewBox="0 0 24 24" style="enable-background:new 0 0 512 512" xml:space="preserve" class=""><circle r="12" cx="12" cy="12" fill="#594387" shape="circle"></circle><g transform="matrix(0.7,0,0,0.7,3.6000000000000014,3.5999999284744266)"><path d="M22 19a1 1 0 0 1-1 1h-9.184a2.982 2.982 0 0 1-5.632 0H3a1 1 0 0 1 0-2h3.184a2.982 2.982 0 0 1 5.632 0H21a1 1 0 0 1 1 1Zm-1-8h-2.184a2.982 2.982 0 0 0-5.632 0H3a1 1 0 0 0 0 2h10.184a2.982 2.982 0 0 0 5.632 0H21a1 1 0 0 0 0-2ZM3 6h5.184a2.982 2.982 0 0 0 5.632 0H21a1 1 0 0 0 0-2h-7.184a2.982 2.982 0 0 0-5.632 0H3a1 1 0 0 0 0 2Z" fill="#ffffff" opacity="1" data-original="#000000" class=""></path></g></svg>