<svg xmlns="http://www.w3.org/2000/svg" version="1.1" xmlns:xlink="http://www.w3.org/1999/xlink" width="512" height="512" x="0" y="0" viewBox="0 0 24 24" style="enable-background:new 0 0 512 512" xml:space="preserve" class=""><g><switch><g><circle cx="12" cy="12" r="12" fill="#2f5597" opacity="1" data-original="#03b8ff" class=""></circle><path fill="#ffffff" d="M17 11H9.4l3.3-3.3c.4-.4.4-1 0-1.4s-1-.4-1.4 0l-5 5c-.1.1-.2.2-.2.3-.1.2-.1.5 0 .8 0 .1.1.2.2.3l5 5c.4.4 1 .4 1.4 0 .4-.4.4-1 0-1.4L9.4 13H17c.6 0 1-.4 1-1s-.5-1-1-1z" opacity="1" data-original="#ffffff" class=""></path></g></switch></g></svg>